# xmcd CD database file
#
# Track frame offsets:
#	183
#	33930
#	75808
#	120173
#	154710
#	175700
#	219695
#
# Disc length: 3510 seconds
#
# Revision: 0
# Processed by: cddbd v1.4PL0 Copyright (c) Steve Scherf et al.
# Submitted via: CDex 1.50
#
DISCID=430db407
DTITLE=District Six - Imgoma Yabantwana
DYEAR=1989
DGENRE=Jazz
TTITLE0=McGregorian Chant
TTITLE1=Home In A Home
TTITLE2=Maras Dance
TTITLE3=Django's Jungle
TTITLE4=Opskud! (Let's Jump)
TTITLE5=Imgoma Yabantwana (Song For The Children)
TTITLE6=Out Of The Question
EXTD=YEAR: 1989
EXTT0=
EXTT1=
EXTT2=
EXTT3=
EXTT4=
EXTT5=
EXTT6=
PLAYORDER=
